<svg xmlns="http://www.w3.org/2000/svg" xmlns:xlink="http://www.w3.org/1999/xlink" viewBox="0 0 78.3999 52.2666">
  <defs>
    <style>
      .cls-1, .cls-2 {
        fill: none;
      }

      .cls-1 {
        clip-rule: evenodd;
      }

      .cls-3 {
        clip-path: url(#clip-path);
      }

      .cls-4 {
        clip-path: url(#clip-path-2);
      }

      .cls-5 {
        fill: #ed1c24;
      }

      .cls-6 {
        fill: #ffde24;
      }

      .cls-7 {
        fill: #213f90;
      }

      .cls-8 {
        fill: #b94f26;
      }
    </style>
    <clipPath id="clip-path" transform="translate(19.3813 2.7849)">
      <path class="cls-1" d="M3.5096,34.5152l.0292-.0014-.0132.3259-.0016.002-.0121-.0023-.0023-.0033ZM21.8491,45.3597l.0163-.1928c2.4376.2035,4.7773.5443,7.0398.8739,1.748.2545,3.5524.5174,5.3914.7149,1.0685-7.451,2.0225-15.1522,2.9455-22.6039.7997-6.4569,1.6263-13.13,2.5246-19.6175-5.985-.8065-12.8537-1.8257-18.4479-2.7374a2.1399,2.1399,0,0,0-.5025.0026,2.89207,2.89207,0,0,1-.6545-.0023c-1.8355-.2884-3.6352-.6565-5.3755-1.0122C13.4664.5148,12.1051.2367,10.757,0c-.0817.5002-.1678,1.076-.2543,1.6548-.1304.8723-.2651,1.774-.386,2.4192a3.38685,3.38685,0,0,1-.7804,2.0232,2.16454,2.16454,0,0,0-.2834.4686c-.1763.3492-.3759.7451-.7946.7451a.71332.71332,0,0,1-.4251-.1536.84137.84137,0,0,1-.09.0046c-.5778,0-.6346-.5579-.659-.7965-.0049-.0485-.0121-.1185-.0217-.1703a2.7346,2.7346,0,0,1-.8961-.2333.9244.9244,0,0,0-.7016-.0684,65.43668,65.43668,0,0,0-.2104,6.687l.0034.1457-.1032.1029c-.881.8778-.5906,1.7892-.1888,3.0501a9.21931,9.21931,0,0,1,.5141,2.3239l.0987.0697c.5832.4089,1.044.7318,1.0669,1.4915l.003.1006-.0521.0859a3.29417,3.29417,0,0,1-1.6081,1.3737,2.41144,2.41144,0,0,0-1.1772.9496,1.64862,1.64862,0,0,0-.0833.7082,3.49857,3.49857,0,0,1-.1112,1.0661,5.26424,5.26424,0,0,1-.594,1.0278c-.1542.2327-.3894.5878-.4974.8009a1.16966,1.16966,0,0,1,.4084.4398.39411.39411,0,0,1-.1278.4477l-.0921.072-.1359.0053a.96388.96388,0,0,1-.4753-.2008,3.85134,3.85134,0,0,0-.3574-.1991,3.30158,3.30158,0,0,0-.0446.774,4.5648,4.5648,0,0,1-.085,1.145,1.6338,1.6338,0,0,1,.5612.4686,1.8919,1.8919,0,0,0,.1819.1948c.0589.0521.1391.1135.2265.1806.3528.2711.7526.5781.811.9479l-.3375.0557-.1892.2778a2.20364,2.20364,0,0,0-.2499-.1254c.0016.0634.0053.1311.0081.1862.0209.3999.047.8977-.3248,1.1121l-.4694.2708-.0179-.2475a1.38693,1.38693,0,0,1-.9997.0262c-.0679-.016-.1369-.0319-.1986-.0438a1.00183,1.00183,0,0,1-.4879.6717c-.0571.0402-.0988.071-.1293.0976a5.18369,5.18369,0,0,0,1.1145.6067c.2378.1055.4836.2147.719.3445.1627.0896.4177.2685.7131.4756.2292.1606.5677.3979.7967.5373a.39268.39268,0,0,1,.3226-.1596.51019.51019,0,0,1,.2685.0826.3992.3992,0,0,1,.189.4378.482.482,0,0,1,.0699.0441,23.63152,23.63152,0,0,0,2.4998,1.5583c.1759.0999.3377.1915.4783.2728a.73734.73734,0,0,0,.2262.069,1.42241,1.42241,0,0,1,.4714.1643,3.05441,3.05441,0,0,1,.576.4803,1.90376,1.90376,0,0,0,.5372.4244.99677.99677,0,0,0,.645.0113.84142.84142,0,0,1,.5181-.0096l.1474.0614L10.3502,38a.49265.49265,0,0,1-.08.4039,1.70829,1.70829,0,0,0,.3397-.0836l.0128-.3641.497.3057a.399.399,0,0,1,.1907.4344.46088.46088,0,0,1,.1059.0807,9.43421,9.43421,0,0,0,2.1525,1.5124l.1437.0823a20.43431,20.43431,0,0,0,3.1388,1.5682c.0117.004.0233.009.0352.0143a.40382.40382,0,0,1,.4901.0149l.1304.0787.046.1756a.50722.50722,0,0,1-.1029.3796c.1558.0648.3551.1384.5089.1955.2777.1029.5649.2091.7816.3147a3.95685,3.95685,0,0,1,.5181.3236,1.47423,1.47423,0,0,0,.5677.303c.0199,0,.0613,0,.1323-.0813l.5552.3846c-.0235.0438-.0755.1514-.0501.2045.0868.1815.6952.2963.9874.3514a2.54739,2.54739,0,0,1,.5241.1318l.0018.001h.0001l-.2694.5955.0095.0282A.26432.26432,0,0,0,21.8491,45.3597ZM10.7215,38.545l-.0727-.0033a.27705.27705,0,0,0-.0073.0886.25.25,0,0,0,.008.0344c.0234-.0074.0465-.0149.068-.0223Z"/>
    </clipPath>
    <clipPath id="clip-path-2" transform="translate(19.3813 2.7849)">
      <rect id="SVGID" class="cls-2" x="-18.3598" y="-2.2741" width="76.6123" height="51.0749"/>
    </clipPath>
  </defs>
  <g id="Layer_2" data-name="Layer 2">
    <g id="Layer_1-2" data-name="Layer 1">
      <g class="cls-3">
        <g class="cls-4">
          <g>
            <line class="cls-2" x1="39.3853" y1="26.1274" x2="39.3311" y2="26.1274"/>
            <polyline class="cls-2" points="39.331 26.127 39.311 26.127 39.311 26.129"/>
            <polygon class="cls-2" points="39.311 26.129 39.311 26.127 39.309 26.127 39.311 26.129"/>
            <polygon class="cls-2" points="39.309 26.127 39.276 26.127 39.31 26.136 39.311 26.129 39.309 26.127"/>
            <polygon class="cls-2" points="38.957 26.046 38.939 26.064 38.922 26.106 38.958 26.097 38.988 26.054 38.957 26.046"/>
            <polygon class="cls-2" points="38.958 26.097 39.058 26.071 38.988 26.054 38.958 26.097"/>
            <polygon class="cls-2" points="39.061 25.947 38.998 25.915 38.947 26.043 38.957 26.046 39.061 25.947"/>
            <polygon class="cls-2" points="39.062 25.947 39.078 25.924 39.016 25.87 38.998 25.915 39.061 25.947 39.062 25.947"/>
            <polygon class="cls-2" points="38.947 26.043 38.939 26.064 38.957 26.046 38.947 26.043"/>
            <polygon class="cls-2" points="39.177 26.011 39.163 25.999 39.062 25.947 38.988 26.054 39.058 26.071 39.18 26.04 39.177 26.011"/>
            <polygon class="cls-2" points="39.18 26.04 39.187 26.105 39.276 26.127 39.309 26.127 39.203 26.035 39.18 26.04"/>
            <polygon class="cls-2" points="39.284 26.061 39.256 26.021 39.223 26.03 39.284 26.061"/>
            <polygon class="cls-2" points="39.223 26.03 39.256 26.021 39.164 25.89 39.176 26.006 39.223 26.03"/>
            <polygon class="cls-5" points="78.4 6.712 78.4 0 66.448 0 39.966 25.09 78.4 6.712"/>
            <polygon class="cls-2" points="39.318 26.078 39.329 26.003 39.256 26.021 39.284 26.061 39.318 26.078"/>
            <polygon class="cls-2" points="39.082 25.928 39.163 25.999 39.176 26.006 39.164 25.89 39.147 25.866 39.082 25.928"/>
            <polygon class="cls-2" points="39.058 26.071 39.187 26.105 39.18 26.04 39.058 26.071"/>
            <polygon class="cls-2" points="39.315 26.104 39.318 26.078 39.284 26.061 39.315 26.104"/>
            <polygon class="cls-2" points="39.223 26.03 39.203 26.035 39.309 26.127 39.311 26.127 39.315 26.104 39.284 26.061 39.223 26.03"/>
            <polygon class="cls-2" points="38.883 26.116 38.922 26.106 38.939 26.064 38.883 26.116"/>
            <polygon class="cls-2" points="39.176 26.006 39.163 25.999 39.177 26.011 39.176 26.006"/>
            <polygon class="cls-2" points="39.203 26.035 39.223 26.03 39.176 26.006 39.177 26.011 39.203 26.035"/>
            <polygon class="cls-2" points="38.957 26.046 38.988 26.054 39.062 25.947 39.061 25.947 38.957 26.046"/>
            <polygon class="cls-2" points="39.18 26.04 39.203 26.035 39.177 26.011 39.18 26.04"/>
            <polygon class="cls-2" points="39.331 26.127 39.315 26.104 39.311 26.127 39.331 26.127"/>
            <polygon class="cls-2" points="39.164 25.89 39.16 25.854 39.147 25.866 39.164 25.89"/>
            <polygon class="cls-2" points="39.061 25.947 39.062 25.947 39.062 25.947 39.061 25.947"/>
            <polygon class="cls-2" points="39.155 25.812 39.131 25.582 39.064 25.749 39.132 25.846 39.155 25.812"/>
            <polygon class="cls-2" points="39.501 25.313 39.422 25.35 39.408 25.446 39.501 25.313"/>
            <polygon class="cls-2" points="39.533 24.572 39.176 25.468 39.422 25.35 39.533 24.572"/>
            <polygon class="cls-2" points="39.115 25.436 39.121 25.494 39.135 25.488 39.115 25.436"/>
            <polygon class="cls-2" points="39.132 25.846 39.064 25.749 39.016 25.87 39.078 25.924 39.132 25.846"/>
            <polygon class="cls-2" points="39.062 25.947 39.163 25.999 39.082 25.928 39.062 25.947 39.062 25.947"/>
            <polygon class="cls-2" points="39.062 25.947 39.082 25.928 39.078 25.924 39.062 25.947"/>
            <polygon class="cls-2" points="39.082 25.928 39.147 25.866 39.132 25.846 39.078 25.924 39.082 25.928"/>
            <polygon class="cls-2" points="38.998 25.915 38.632 25.728 38.313 25.881 38.947 26.043 38.998 25.915"/>
            <polygon class="cls-2" points="39.336 26.001 39.331 25.989 39.329 26.003 39.336 26.001"/>
            <polygon class="cls-5" points="39.422 25.35 39.501 25.313 57.005 0 49.323 0 39.533 24.572 39.422 25.35"/>
            <polygon class="cls-5" points="39.135 25.488 39.176 25.468 39.533 24.572 43.035 0 36.366 0 39.115 25.436 39.135 25.488"/>
            <polygon class="cls-6" points="49.323 0 43.035 0 39.533 24.572 49.323 0"/>
            <polygon class="cls-2" points="39.408 25.446 39.38 25.646 39.966 25.09 39.501 25.313 39.408 25.446"/>
            <polygon class="cls-2" points="39.16 25.854 39.164 25.89 39.256 26.021 39.329 26.003 39.331 25.989 39.246 25.772 39.16 25.854"/>
            <polygon class="cls-2" points="39.223 25.714 39.246 25.772 39.38 25.646 39.408 25.446 39.223 25.714"/>
            <polygon class="cls-2" points="39.331 25.989 39.38 25.646 39.246 25.772 39.331 25.989"/>
            <polygon class="cls-6" points="39.966 25.09 66.448 0 57.005 0 39.501 25.313 39.966 25.09"/>
            <polygon class="cls-6" points="36.366 0 29.164 0 39.115 25.436 36.366 0"/>
            <polygon class="cls-5" points="39.378 26.109 39.414 26.127 78.4 26.127 78.4 16.059 39.336 26.001 39.378 26.109"/>
            <polygon class="cls-6" points="38.632 25.728 0 6.003 0 16.062 38.313 25.881 38.632 25.728"/>
            <polygon class="cls-6" points="39.966 25.09 39.38 25.646 39.331 25.989 39.336 26.001 78.4 16.059 78.4 6.712 39.966 25.09"/>
            <polygon class="cls-5" points="38.313 25.881 0 16.062 0 26.127 37.797 26.127 38.313 25.881"/>
            <polygon class="cls-5" points="39.121 25.494 39.115 25.436 29.164 0 20.88 0 38.944 25.579 39.121 25.494"/>
            <polygon class="cls-5" points="38.776 25.659 9.53 0 0 0 0 6.003 38.632 25.728 38.776 25.659"/>
            <polygon class="cls-6" points="38.944 25.579 20.88 0 9.53 0 38.776 25.659 38.944 25.579"/>
            <polygon class="cls-2" points="38.939 26.064 38.947 26.043 38.313 25.881 37.797 26.127 38.839 26.127 38.883 26.116 38.939 26.064"/>
            <polygon class="cls-2" points="39.131 25.582 39.121 25.494 38.944 25.579 39.064 25.749 39.131 25.582"/>
            <polygon class="cls-2" points="39.318 26.078 39.378 26.109 39.336 26.001 39.329 26.003 39.318 26.078"/>
            <polygon class="cls-2" points="39.176 25.468 39.135 25.488 39.151 25.53 39.176 25.468"/>
            <polygon class="cls-2" points="39.016 25.87 38.776 25.659 38.632 25.728 38.998 25.915 39.016 25.87"/>
            <polygon class="cls-2" points="39.064 25.749 38.944 25.579 38.776 25.659 39.016 25.87 39.064 25.749"/>
            <polygon class="cls-2" points="39.16 25.854 39.246 25.772 39.223 25.714 39.155 25.812 39.16 25.854"/>
            <polygon class="cls-2" points="39.131 25.582 39.155 25.812 39.223 25.714 39.151 25.53 39.131 25.582"/>
            <polygon class="cls-2" points="39.223 25.714 39.408 25.446 39.422 25.35 39.176 25.468 39.151 25.53 39.223 25.714"/>
            <polygon class="cls-2" points="39.151 25.53 39.135 25.488 39.121 25.494 39.131 25.582 39.151 25.53"/>
            <polygon class="cls-2" points="39.414 26.127 39.378 26.109 39.385 26.127 39.414 26.127"/>
            <polygon class="cls-2" points="39.187 26.105 39.19 26.127 39.276 26.127 39.187 26.105"/>
            <polygon class="cls-2" points="39.058 26.071 38.958 26.097 38.937 26.127 39.19 26.127 39.187 26.105 39.058 26.071"/>
            <polygon class="cls-2" points="39.132 25.846 39.147 25.866 39.16 25.854 39.155 25.812 39.132 25.846"/>
            <polygon class="cls-2" points="39.315 26.104 39.331 26.127 39.385 26.127 39.378 26.109 39.318 26.078 39.315 26.104"/>
            <polygon class="cls-2" points="38.922 26.106 38.913 26.127 38.937 26.127 38.958 26.097 38.922 26.106"/>
            <polygon class="cls-2" points="38.839 26.127 38.872 26.127 38.883 26.116 38.839 26.127"/>
            <polygon class="cls-2" points="38.883 26.116 38.872 26.127 38.913 26.127 38.922 26.106 38.883 26.116"/>
            <rect class="cls-7" y="26.1274" width="78.3999" height="26.1392"/>
            <polygon class="cls-8" points="39.501 14.329 42.106 22.346 50.535 22.346 44.13 27.3 46.32 35.317 39.501 30.648 32.682 35.317 34.87 26.998 28.467 22.346 36.896 22.346 39.501 14.329"/>
          </g>
        </g>
      </g>
    </g>
  </g>
</svg>
